<svg width="24" height="23" viewBox="0 0 24 23" fill="none" xmlns="http://www.w3.org/2000/svg">
<path d="M16.4177 21.1697V18.9564C16.4177 17.7824 16.0176 16.6565 15.3054 15.8264C14.5932 14.9962 13.6273 14.5298 12.6202 14.5298H5.02525C4.0181 14.5298 3.0522 14.9962 2.34004 15.8264C1.62787 16.6565 1.22778 17.7824 1.22778 18.9564V21.1697" stroke="#5F3305" stroke-width="2" stroke-linecap="round" stroke-linejoin="round"/>
<path d="M8.95578 9.39908C11.0321 9.39908 12.7153 7.57489 12.7153 5.32463C12.7153 3.07438 11.0321 1.25018 8.95578 1.25018C6.87947 1.25018 5.19629 3.07438 5.19629 5.32463C5.19629 7.57489 6.87947 9.39908 8.95578 9.39908Z" stroke="#5F3305" stroke-width="2" stroke-linecap="round" stroke-linejoin="round"/>
<path d="M22.114 21.1697V18.9564C22.1134 17.9756 21.8333 17.0229 21.3178 16.2477C20.8023 15.4725 20.0806 14.9189 19.2659 14.6737" stroke="#5F3305" stroke-width="2" stroke-linecap="round" stroke-linejoin="round"/>
<path d="M15.2214 1.25018C16.1774 1.48182 17.0247 2.00798 17.6297 2.7457C18.2348 3.48342 18.5632 4.39075 18.5632 5.32463C18.5632 6.25852 18.2348 7.16584 17.6297 7.90356C17.0247 8.64128 16.1774 9.16744 15.2214 9.39908" stroke="#5F3305" stroke-width="2" stroke-linecap="round" stroke-linejoin="round"/>
</svg>
