<svg width="23" height="29" viewBox="0 0 23 29" fill="none" xmlns="http://www.w3.org/2000/svg">
<path d="M5.56495 6.39081V3.6954C5.56495 2.98054 5.87612 2.29495 6.43 1.78947C6.98388 1.28398 7.7351 1 8.51841 1H14.4253C15.2086 1 15.9598 1.28398 16.5137 1.78947C17.0676 2.29495 17.3788 2.98054 17.3788 3.6954V6.39081M21.809 6.39081V25.2586C21.809 25.9735 21.4978 26.6591 20.9439 27.1646C20.39 27.6701 19.6388 27.954 18.8555 27.954H4.08822C3.30492 27.954 2.55369 27.6701 1.99981 27.1646C1.44593 26.6591 1.13477 25.9735 1.13477 25.2586V6.39081H21.809Z" stroke="#5F3305" stroke-width="2" stroke-linecap="round" stroke-linejoin="round"/>
<path d="M8.51855 13.1294V21.2156" stroke="#5F3305" stroke-width="2" stroke-linecap="round" stroke-linejoin="round"/>
<path d="M14.4253 13.1294V21.2156" stroke="#5F3305" stroke-width="2" stroke-linecap="round" stroke-linejoin="round"/>
</svg>
