<svg width="310" height="179" viewBox="0 0 310 179" fill="none" xmlns="http://www.w3.org/2000/svg">
<g clip-path="url(#clip0_323_136)">
<path d="M0 10C0 4.47716 4.47715 0 10 0H300C305.523 0 310 4.47715 310 10V169C310 174.523 305.523 179 300 179H10C4.47716 179 0 174.523 0 169V10Z" fill="#E5E5E5"/>
<line x1="475.25" y1="-94.5671" x2="-164.75" y2="275.433" stroke="#0065FF"/>
<path d="M-165 -93L475.248 273.566" stroke="#0065FF"/>
</g>
<defs>
<clipPath id="clip0_323_136">
<path d="M0 10C0 4.47716 4.47715 0 10 0H300C305.523 0 310 4.47715 310 10V169C310 174.523 305.523 179 300 179H10C4.47716 179 0 174.523 0 169V10Z" fill="white"/>
</clipPath>
</defs>
</svg>
