<svg width="40" height="22" viewBox="0 0 40 22" fill="none" xmlns="http://www.w3.org/2000/svg">
<g clip-path="url(#clip0_317_141)">
<path d="M10.9804 0.5H29.0196C34.8069 0.5 39.5 5.20017 39.5 11C39.5 16.7998 34.8069 21.5 29.0196 21.5H10.9804C5.19307 21.5 0.5 16.7998 0.5 11C0.5 5.20017 5.19307 0.5 10.9804 0.5Z" fill="white" stroke="#3C3B3A"/>
<path d="M29.0197 0.392822H10.9804C5.13273 0.392822 0.392212 5.1418 0.392212 11C0.392212 16.8581 5.13273 21.6071 10.9804 21.6071H29.0197C34.8674 21.6071 39.6079 16.8581 39.6079 11C39.6079 5.1418 34.8674 0.392822 29.0197 0.392822Z" fill="#E5E5E5" stroke="#3C3B3A"/>
<path d="M11.6275 19.6429C16.3923 19.6429 20.2549 15.7734 20.2549 11C20.2549 6.22672 16.3923 2.35718 11.6275 2.35718C6.86264 2.35718 3 6.22672 3 11C3 15.7734 6.86264 19.6429 11.6275 19.6429Z" fill="#3C3B3A"/>
</g>
<defs>
<clipPath id="clip0_317_141">
<rect width="40" height="22" fill="white"/>
</clipPath>
</defs>
</svg>
